# xmcd CD database file
#
# Track frame offsets:
#	150
#	21451
#	50693
#	71896
#	98744
#	118182
#	138751
#	159731
#	189004
#	209704
#
# Disc length: 3094 seconds
#
# Revision: 0
# Processed by: cddbd v1.5.1PL0 Copyright (c) Steve Scherf et al.
# Submitted via: CDex 1.51
#
DISCID=940c140a
DTITLE=THE ANDY AZRIN TRIO - ジャズで聴く　井上陽水　作品集
DYEAR=1900
DGENRE=Jazz
TTITLE0=夢の中へ
TTITLE1=新しいラプソディー
TTITLE2=氷の世界
TTITLE3=少年時代
TTITLE4=東へ西へ
TTITLE5=ダンスはうまく踊れない
TTITLE6=飾りじゃないのよ涙は
TTITLE7=いっそセレナーデ
TTITLE8=リバーサイド・ホテル
TTITLE9=心もよう
EXTD=
EXTT0=
EXTT1=
EXTT2=
EXTT3=
EXTT4=
EXTT5=
EXTT6=
EXTT7=
EXTT8=
EXTT9=
PLAYORDER=
